<svg xmlns="http://www.w3.org/2000/svg" xmlns:xlink="http://www.w3.org/1999/xlink" width="512" height="512" viewBox="0 0 512 512">
  <defs>
    <clipPath id="clip-teamswitch-extension-icon">
      <rect width="512" height="512"/>
    </clipPath>
  </defs>
  <g id="teamswitch-extension-icon" clip-path="url(#clip-teamswitch-extension-icon)">
    <g id="Group_1" data-name="Group 1" transform="translate(32 355.074)">
      <path id="Path_1" data-name="Path 1" d="M402.842-106.092a80.148,80.148,0,0,1-12.495,43.231c-.374.585-.763,1.165-1.151,1.742a2.44,2.44,0,0,0-.153.239c-.347.494-.68.985-1.026,1.473-.1.122-.18.244-.277.366-.305.44-.638.876-.957,1.31-.111.15-.236.3-.347.451-.305.4-.61.8-.929,1.2-.139.168-.263.336-.4.5-.305.376-.61.749-.929,1.119-.139.176-.291.354-.444.528-.305.362-.624.72-.943,1.078l-.458.523c-.333.372-.679.738-1.012,1.1-.139.153-.277.305-.43.456-.485.51-.971,1.016-1.47,1.517L337.539-7.388,273.846,56.307q-.832.842-1.706,1.656c-.194.18-.388.355-.582.533q-.582.541-1.165,1.071c-.236.205-.471.408-.707.61q-.541.472-1.082.935c-.263.211-.513.417-.763.625q-.541.437-1.082.864-.4.312-.79.617-.541.414-1.082.818c-.263.2-.541.4-.8.595q-.562.4-1.123.788c-.263.189-.541.376-.8.56-.388.265-.79.523-1.179.779-.263.169-.513.341-.777.508q-.936.593-1.872,1.159c-.014,0-.014.008-.028.012-.61.369-1.234.727-1.858,1.079q-2.371,1.331-4.826,2.495c-.18.085-.361.166-.541.25q-1.435.659-2.871,1.265c-.18.075-.361.153-.541.226-.929.383-1.872.746-2.815,1.093-.222.079-.43.151-.652.226-.764.275-1.539.535-2.317.785-.262.087-.539.175-.817.259-.707.222-1.43.426-2.149.627-.334.093-.667.193-1,.283-1.04.273-2.08.531-3.12.764-.969.214-1.928.392-2.9.571-.693.128-1.4.248-2.094.358-.666.105-1.331.212-2.011.3-.153.021-.306.043-.473.064-1.026.128-2.051.237-3.091.329-.236.019-.472.035-.693.053q-1.248.1-2.5.158c-.293.014-.582.029-.874.04-1.04.039-2.094.065-3.134.067h-.014c-1.331,0-2.678-.033-3.994-.1-1.179-.055-2.359-.147-3.522-.254-.305-.028-.624-.06-.929-.09q-1.539-.158-3.079-.372c-.139-.021-.291-.037-.444-.06-1.151-.168-2.288-.366-3.425-.582-.43-.085-.874-.173-1.3-.263-.361-.074-.707-.144-1.054-.223-.513-.112-1.026-.236-1.525-.358-.333-.079-.652-.155-.985-.239-.555-.143-1.109-.3-1.664-.451-.263-.076-.541-.146-.8-.225-.818-.237-1.636-.487-2.441-.75-.666-.218-1.331-.466-2-.7-.555-.2-1.123-.38-1.664-.591l-.083-.029c-1.04-.4-2.08-.833-3.12-1.28-.277-.121-.569-.245-.846-.37-.929-.416-1.858-.847-2.774-1.3-.125-.061-.25-.118-.374-.179-1.026-.509-2.039-1.047-3.037-1.6-.25-.143-.513-.291-.763-.438-.845-.477-1.674-.968-2.5-1.477-.2-.125-.406-.244-.606-.372-.282-.176-.557-.361-.835-.541-.438-.284-.876-.57-1.309-.863-.3-.2-.591-.408-.885-.614-.409-.284-.818-.571-1.222-.864s-.79-.58-1.182-.875c-.178-.133-.356-.265-.533-.4-.337-.259-.67-.527-1-.792s-.646-.509-.965-.77c-.18-.148-.359-.3-.538-.449q-.6-.5-1.2-1.014c-.2-.176-.4-.354-.607-.531q-.574-.51-1.143-1.03c-.184-.171-.37-.338-.552-.51q-.736-.686-1.455-1.4c-.053-.051-.107-.1-.158-.153q1.56-.487,3.11-1t3.09-1.066q3.081-1.1,6.113-2.316c.551.463,1.114.9,1.675,1.347.22.173.434.355.655.526l.025.019c.707.544,1.43,1.068,2.155,1.584.083.055.153.115.236.171s.166.115.25.172q.624.433,1.248.847c.166.108.333.22.5.327,1.179.765,2.371,1.492,3.592,2.181.153.087.305.171.458.257q.686.381,1.373.746c.194.1.4.205.6.306.43.22.86.438,1.3.649.194.1.4.2.6.294.471.219.929.433,1.4.642.166.075.333.153.5.225,1.29.562,2.593,1.084,3.9,1.566l.125.043c.069.026.139.047.208.073.79.284,1.581.553,2.385.807l.222.078c.042.012.083.025.139.037,1.331.42,2.69.8,4.049,1.134.18.042.347.078.513.118.361.087.721.176,1.082.258.1.019.18.032.277.051.874.191,1.761.37,2.663.528.125.024.263.039.4.062.388.064.763.116,1.151.175.763.116,1.525.223,2.3.315.416.049.832.1,1.262.137.777.076,1.553.139,2.342.19.374.026.764.057,1.139.075,1.122.055,2.26.09,3.382.092.043,0,.071,0,.1,0a69.986,69.986,0,0,0,10.22-.747q.832-.123,1.663-.265c.279-.049.556-.112.832-.165.541-.1,1.1-.211,1.652-.326.262-.058.541-.1.818-.164s.582-.148.874-.216c.484-.114.957-.232,1.428-.355.582-.151,1.165-.312,1.733-.478.472-.135.943-.27,1.4-.416.582-.18,1.151-.372,1.72-.567.456-.155.915-.309,1.359-.473.582-.211,1.15-.434,1.72-.66.43-.173.874-.343,1.3-.526.582-.243,1.151-.5,1.72-.761.416-.187.832-.37,1.248-.567.6-.283,1.179-.584,1.761-.883.374-.2.763-.383,1.137-.585.638-.344,1.262-.709,1.886-1.073.319-.18.638-.349.943-.535q1.394-.838,2.746-1.745h.014a69.991,69.991,0,0,0,7.9-6.168c.028-.031.069-.058.1-.089.652-.585,1.276-1.2,1.9-1.81.194-.187.388-.365.582-.556L318.472-4.642l10.9-10.912,41.88-41.873c.43-.434.86-.874,1.276-1.317.139-.135.25-.27.388-.406.291-.313.582-.628.86-.946.153-.158.277-.316.43-.474q.4-.456.79-.918c.139-.158.277-.319.4-.478q.4-.476.79-.96c.125-.15.25-.3.361-.451.277-.345.541-.693.818-1.044l.291-.388q.437-.593.874-1.2c.069-.087.125-.175.194-.262a68.443,68.443,0,0,0,12.619-39.825c0-1.663-.055-3.339-.18-5a12.44,12.44,0,0,0-.055-1.9v-.035l-.042-.5a68.753,68.753,0,0,0-13.285-33.79,69.823,69.823,0,0,0-6.407-7.412c-1.262-1.251-2.552-2.445-3.883-3.589-.5-.43-1.012-.853-1.525-1.267-.305-.254-.638-.5-.957-.749-.277-.223-.569-.449-.86-.668-.319-.243-.652-.477-.971-.714-.291-.215-.6-.431-.888-.643-.333-.227-.666-.451-.985-.673s-.624-.417-.929-.623c-.333-.212-.666-.423-.985-.631s-.652-.406-.985-.6-.652-.392-.971-.584c-.361-.2-.707-.4-1.068-.6-.305-.175-.624-.352-.929-.521-.43-.23-.86-.452-1.3-.674-.236-.126-.485-.258-.735-.38-.666-.331-1.331-.649-2.011-.958-.263-.122-.527-.236-.8-.354-.43-.193-.874-.385-1.317-.57-.291-.123-.6-.241-.888-.361-.43-.168-.846-.333-1.262-.494-.305-.115-.624-.226-.929-.338-.43-.154-.86-.3-1.276-.448-.305-.1-.61-.205-.929-.3-.444-.144-.888-.282-1.345-.417-.291-.087-.582-.176-.874-.259-.5-.143-1-.275-1.5-.406-.25-.065-.5-.135-.749-.2-.749-.187-1.5-.363-2.26-.526h0l-.028,0c-.139-.035-.291-.069-.444-.1h0l-.028,0-.014,0c-.4-.082-.8-.159-1.22-.234h0s-.014,0-.014,0c-.735-.14-1.47-.263-2.191-.376-.083-.012-.166-.031-.25-.044a.589.589,0,0,0-.069-.008c-.028-.007-.069-.012-.111-.018h0c-1.068-.159-1.969-.277-2.843-.373a70.316,70.316,0,0,0-7.544-.408,69.254,69.254,0,0,0-18.416,2.477c-2.163.595-4.271,1.294-6.351,2.094-1.567.6-3.092,1.258-4.6,1.972s-3,1.482-4.452,2.309a69.239,69.239,0,0,0-14.769,11.249L168.351-49.19a79.675,79.675,0,0,1-20.388,14.762q-1.6.811-3.242,1.55a80.537,80.537,0,0,1-13.6,4.711,80.936,80.936,0,0,1-14.367,2.224l-.071,0h-.075c-1.688.107-3.4.161-5.1.161q-.938,0-1.875-.022-2.816-.064-5.625-.325c-2.493-.23-4.974-.574-7.426-1.032q-1.371-.256-2.733-.559a80.022,80.022,0,0,1-13.274-4.195Q78-32.974,75.49-34.223a79.881,79.881,0,0,1-8.368-4.82,79.334,79.334,0,0,1-10.109-7.913q-1.186-1.092-2.326-2.234A80.057,80.057,0,0,1,42.563-64.724a80.161,80.161,0,0,1-11.3-41.3,81.035,81.035,0,0,1,4.649-27.186q.655-1.841,1.4-3.647a78.91,78.91,0,0,1,4.267-8.775q.961-1.7,2.008-3.359t2.177-3.263a80.368,80.368,0,0,1,8.921-10.6L160.257-268.42a79.418,79.418,0,0,1,33.365-19.993c1.872-.566,3.772-1.062,5.686-1.489.652-.141,1.29-.276,1.941-.4,1.29-.254,2.579-.477,3.883-.668.652-.1,1.317-.184,1.969-.265a82.684,82.684,0,0,1,9.983-.6c1.347,0,2.678.033,4.008.1a80.694,80.694,0,0,1,21.177,3.87c1.234.4,2.455.832,3.675,1.294a79.258,79.258,0,0,1,13.868,6.913,78.159,78.159,0,0,1,7.946,5.688q3.058,2.48,5.88,5.279-3.12.971-6.2,2.065t-6.116,2.312q-2.33-1.949-4.784-3.675a68.043,68.043,0,0,0-15.823-8.255q-1.415-.508-2.83-.957a68.444,68.444,0,0,0-8.707-2.127,69.908,69.908,0,0,0-12.094-1.048c-1.15,0-2.287.028-3.439.083q-3.411.166-6.766.661c-.555.082-1.109.171-1.678.268-1.1.19-2.2.409-3.3.653a67.908,67.908,0,0,0-22.978,9.842,69.139,69.139,0,0,0-10.5,8.623l-52.786,52.785L62.854-154.687a69.663,69.663,0,0,0-5.644,6.379,68.327,68.327,0,0,0-4.759,6.941q-.861,1.439-1.652,2.916-1.182,2.215-2.2,4.511-.676,1.529-1.277,3.091T46.2-127.7a69.285,69.285,0,0,0-3.446,21.675,69.494,69.494,0,0,0,2.478,18.463q.223.809.463,1.613.487,1.6,1.047,3.181t1.2,3.122q.639,1.548,1.352,3.059.358.757.732,1.5.753,1.494,1.577,2.952a68.274,68.274,0,0,0,5.6,8.39,69.852,69.852,0,0,0,5.644,6.379,68.726,68.726,0,0,0,7.408,6.41,68.074,68.074,0,0,0,7.7,5A68.631,68.631,0,0,0,88.39-41.24a68.892,68.892,0,0,0,15.662,3.575,70.476,70.476,0,0,0,7.541.408A69.84,69.84,0,0,0,121.79-38q3.345-.493,6.6-1.306,1.629-.406,3.23-.892t3.177-1.046a67.835,67.835,0,0,0,14.906-7.5,69.16,69.16,0,0,0,10.478-8.609l43.672-43.67,62.016-61.862a80.669,80.669,0,0,1,9.014-7.77c.527-.391,1.054-.774,1.595-1.151a79.282,79.282,0,0,1,8.334-5.127,80.327,80.327,0,0,1,37.9-9.372c1.72,0,3.467.055,5.2.165s3.481.275,5.2.494c.361.044.68.089,1,.13s.6.086.888.13l.139.019h0c.361.055.707.114,1.054.173.055.008.111.015.153.025a.652.652,0,0,1,.069.012c.374.064.749.129,1.109.2a80.4,80.4,0,0,1,13.382,3.718q1.29.487,2.579,1.019,2.579,1.063,5.075,2.308h0c.874.433,1.733.885,2.579,1.347.263.14.513.282.763.423.624.345,1.234.7,1.844,1.062.263.151.513.3.763.453.79.48,1.567.968,2.344,1.473.028.026.083.053.111.078.8.526,1.581,1.069,2.357,1.622.25.177.5.361.749.541.555.4,1.1.815,1.636,1.233.25.191.5.383.749.578.68.539,1.359,1.087,2.025,1.65.069.06.153.118.222.179,1.623,1.384,3.2,2.835,4.715,4.352A79.792,79.792,0,0,1,402.842-106.092ZM382.831-177.7c-.624-.527-1.262-1.043-1.9-1.553-.541-.431-1.1-.853-1.65-1.272-.4-.311-.818-.62-1.234-.924-.444-.331-.9-.66-1.359-.983-.527-.37-1.054-.732-1.581-1.093-.361-.243-.721-.492-1.082-.731-.874-.57-1.747-1.122-2.635-1.663-.333-.2-.652-.388-.985-.582-.68-.4-1.359-.8-2.052-1.183-.305-.172-.624-.344-.929-.512-.985-.535-1.969-1.057-2.968-1.555-.971-.484-1.955-.949-2.94-1.4a94.413,94.413,0,0,0-9.042-3.56c-2.052-.685-4.119-1.3-6.213-1.84s-4.188-1.012-6.324-1.408c-.915-.172-1.844-.33-2.773-.474-.042-.007-.1-.015-.153-.022-.735-.115-1.484-.214-2.233-.311a95.9,95.9,0,0,0-12.065-.764c-.79,0-1.567.01-2.357.028q-2.33.058-4.659.226c-.777.057-1.539.122-2.316.2a92.718,92.718,0,0,0-56.857,26.839L199.71-115.574,150.838-66.7a55.653,55.653,0,0,1-8.484,6.959,55.12,55.12,0,0,1-9.549,5.087q-2.5,1.03-5.09,1.812-1.294.391-2.608.718a55.823,55.823,0,0,1-8.031,1.384q-2.719.266-5.483.268c-1.014,0-2.033-.028-3.052-.082q-.765-.042-1.534-.1c-.51-.04-1.022-.09-1.534-.144A55.758,55.758,0,0,1,92.82-53.691a55.046,55.046,0,0,1-5.128-2.115,55,55,0,0,1-6.462-3.6q-1.558-1.009-3.045-2.123A55.563,55.563,0,0,1,72.2-66.7a55.544,55.544,0,0,1-8.4-10.757,55.4,55.4,0,0,1-7.825-28.562,55.524,55.524,0,0,1,6.493-26.208A55.419,55.419,0,0,1,72.2-145.34L177.772-250.909a56.528,56.528,0,0,1,4.216-3.812A55.292,55.292,0,0,1,196.16-263.1a55.6,55.6,0,0,1,15.6-3.811c1.761-.169,3.55-.254,5.324-.254a55.714,55.714,0,0,1,25.878,6.351,55.162,55.162,0,0,1,9.222,6.1,53.886,53.886,0,0,1,4.216,3.811c.721.713,1.414,1.452,2.094,2.216a149.588,149.588,0,0,1,28.387-9.956q4.888-1.179,9.86-2.033c-.943-1.55-1.941-3.069-2.982-4.558a92.285,92.285,0,0,0-10.5-12.527,92.7,92.7,0,0,0-32.395-21.087,94.042,94.042,0,0,0-33.783-6.2,95.268,95.268,0,0,0-18.442,1.789q-1.123.223-2.247.471c-1.484.331-2.968.7-4.438,1.1s-2.926.842-4.368,1.316-2.871.982-4.285,1.525c-.707.272-1.414.552-2.108.842q-2.1.865-4.16,1.836-1.03.485-2.044.994a93.048,93.048,0,0,0-24.081,17.415L45.342-172.2a93.793,93.793,0,0,0-7.665,8.666q-2.827,3.626-5.27,7.488-1.828,2.893-3.435,5.908A93.466,93.466,0,0,0,18.051-106.02,93.468,93.468,0,0,0,28.973-61.9q1.6,3.012,3.435,5.908,2.44,3.859,5.27,7.488a93.79,93.79,0,0,0,7.665,8.666A92.635,92.635,0,0,0,69.6-22.392q2.916,1.452,5.92,2.7A93.779,93.779,0,0,0,84.7-16.44q1.556.46,3.126.869,3.143.815,6.34,1.412a94.7,94.7,0,0,0,12.986,1.5q2.18.1,4.363.1,1.481,0,2.965-.046t2.963-.139l.112-.007q1.065-.067,2.127-.158,2.124-.183,4.228-.46a94.038,94.038,0,0,0,10.38-1.966q2.047-.51,4.062-1.107a93.336,93.336,0,0,0,19.269-8.164A92.95,92.95,0,0,0,177.7-39.843l105.56-105.569A55.231,55.231,0,0,1,301.3-157.458c1.664-.686,3.356-1.291,5.089-1.812s3.467-.958,5.242-1.309a56.007,56.007,0,0,1,10.872-1.062c.513,0,1.012.007,1.525.021,1.525.042,3.065.144,4.6.311.777.083,1.539.19,2.316.306l.083.012c.68.105,1.373.223,2.052.354.333.062.666.125,1,.193.125.026.25.057.374.085.624.13,1.234.275,1.844.426.208.051.416.11.624.165.388.1.79.207,1.179.319.263.072.513.151.763.227.347.1.693.205,1.026.315q.416.135.832.277c.305.1.61.211.929.32q.437.16.874.326.416.16.832.326c.319.123.624.248.943.377.236.1.485.211.735.318.333.146.666.291,1,.444.194.089.388.184.582.276.374.177.749.355,1.109.539a1.816,1.816,0,0,1,.18.09,55.306,55.306,0,0,1,5.81,3.406c.055.04.111.078.166.116.43.291.86.589,1.276.893.069.051.153.1.222.155.416.3.832.616,1.234.932l.208.153c.416.326.832.657,1.234,1a1.089,1.089,0,0,1,.139.114c.43.356.86.72,1.276,1.09.874.767,1.72,1.557,2.552,2.384a55.533,55.533,0,0,1,5.173,5.985,55.389,55.389,0,0,1,10.72,27.289l.042.427-.1.024c.18,1.835.263,3.69.263,5.559a55.376,55.376,0,0,1-8.293,29.3c-.527.856-1.1,1.7-1.664,2.525a3.137,3.137,0,0,0-.18.259c-.513.725-1.054,1.439-1.595,2.143-.125.151-.236.3-.361.453-.513.641-1.04,1.268-1.581,1.887-.153.172-.291.348-.444.519-.68.759-1.387,1.5-2.108,2.23L320.025-24.9,301.941-6.809l-45.61,45.6c-.527.535-1.082,1.047-1.636,1.556-.846.779-1.692,1.538-2.579,2.256v0c-.652.531-1.317,1.041-2,1.539-.194.148-.4.293-.6.44-.5.361-1.012.713-1.525,1.055-.236.159-.472.323-.707.478-.194.128-.4.254-.6.379-.347.222-.707.44-1.068.653-.194.121-.4.241-.6.361-.388.219-.763.433-1.137.643-.18.1-.361.2-.541.294-.555.3-1.111.588-1.678.867,0,0-.014.006-.014.008-.569.277-1.123.542-1.693.8-.193.086-.387.165-.567.248-.388.171-.792.338-1.179.5-.222.09-.43.178-.653.265-.374.148-.747.291-1.122.43-.222.082-.445.164-.666.243-.293.1-.582.2-.874.3-.43.15-.874.294-1.317.431l-.818.248c-.444.13-.9.255-1.345.374-.263.071-.527.143-.806.209-.484.122-.969.233-1.455.343-.222.05-.459.105-.68.153-.721.15-1.442.288-2.149.409h-.014c-.723.121-1.43.225-2.163.318-.236.031-.473.054-.721.082-.459.053-.915.1-1.387.146-.582.051-1.152.09-1.733.123-.265.015-.513.037-.778.049-.845.039-1.677.06-2.523.06-.139,0-.279-.006-.416-.006-.444,0-.875-.008-1.317-.022-.251-.008-.513-.022-.778-.035-.318-.014-.637-.028-.969-.047-.277-.017-.555-.042-.832-.062-.306-.024-.61-.046-.915-.075s-.57-.058-.846-.089c-.305-.033-.6-.067-.9-.1-.277-.035-.569-.075-.86-.115s-.582-.085-.874-.13-.582-.093-.86-.143-.582-.1-.874-.159-.569-.11-.86-.168-.582-.125-.874-.19-.569-.125-.846-.193-.6-.147-.888-.222-.555-.139-.818-.214c-.319-.085-.624-.176-.929-.266-.263-.075-.513-.146-.777-.225-.388-.119-.763-.247-1.151-.376-.319-.107-.638-.216-.971-.329-.388-.139-.79-.279-1.179-.427-.236-.09-.471-.187-.707-.28-.319-.125-.638-.247-.943-.377-.25-.1-.5-.214-.749-.322-.305-.129-.6-.258-.888-.391-.263-.114-.513-.233-.763-.351-.291-.137-.582-.276-.86-.419-.25-.123-.5-.25-.749-.376s-.485-.25-.721-.377c-1.442-.768-2.871-1.6-4.257-2.509l-.416-.273q-1.019-.674-2-1.4c-.111-.075-.208-.153-.305-.23-.61-.448-1.206-.91-1.8-1.387-.1-.083-.208-.162-.305-.245-.638-.52-1.262-1.059-1.872-1.61-.139-.118-.263-.239-.4-.358-.624-.573-1.248-1.157-1.844-1.764-.721-.713-1.417-1.452-2.1-2.215a149.344,149.344,0,0,1-28.378,9.954q-4.886,1.179-9.864,2.033c.011.018.024.036.033.055.3.484.607.961.914,1.438.175.275.345.553.524.827.337.516.686,1.023,1.035,1.532.161.234.315.473.477.706l.008.011c.693,1,1.414,1.972,2.147,2.939.176.233.355.465.534.7.194.25.38.5.576.753q.832,1.055,1.7,2.086l0,0c.781.933,1.588,1.846,2.406,2.749.2.218.4.433.6.649.825.894,1.664,1.779,2.527,2.642.01.01.019.018.028.028q1.013,1.011,2.054,1.984c.218.207.44.408.659.61q.757.7,1.524,1.377c.239.209.476.419.716.627.573.5,1.152.983,1.736,1.466.158.13.315.265.474.4q1.109.9,2.241,1.764c.2.15.4.3.594.444q.857.645,1.728,1.269l.774.548q.849.593,1.708,1.166c.23.153.458.308.686.458q1.186.776,2.389,1.517c.115.069.233.137.349.208q1.042.63,2.1,1.234c.1.058.2.122.305.18.252.143.509.277.761.417.3.166.6.333.9.5.111.06.22.123.331.183.15.079.305.153.456.232q1.057.555,2.126,1.084c.237.116.474.236.711.351.9.435,1.814.86,2.729,1.266.042.017.069.035.111.05.458.2.915.391,1.359.582.222.093.444.189.652.279l.083.032c1.941.8,3.911,1.532,5.921,2.2.1.033.194.069.291.1.79.258,1.567.508,2.357.745.444.135.888.259,1.345.387.153.044.319.092.471.137l.374.107c1.082.3,2.177.57,3.273.829l.582.136c.194.044.388.094.582.139q1.123.248,2.247.471c.277.054.555.1.832.151.194.039.4.075.6.111,1.026.187,2.066.363,3.106.516.166.024.319.039.485.062.416.058.818.105,1.234.158q1.373.177,2.746.315c.472.046.929.087,1.4.126.915.078,1.844.14,2.773.19.416.022.831.05,1.248.068,1.344.055,2.676.092,4.022.092a94.045,94.045,0,0,0,33.49-6.1l.291-.105c.707-.272,1.414-.552,2.108-.84.361-.144.707-.3,1.054-.447,2.746-1.176,5.45-2.486,8.085-3.927l.582-.326c.943-.52,1.858-1.055,2.787-1.609l.5-.311c.86-.527,1.706-1.066,2.552-1.621.111-.075.236-.146.347-.22q1.352-.9,2.663-1.851l.582-.419c.888-.639,1.747-1.29,2.607-1.961.111-.086.222-.175.333-.262.79-.627,1.567-1.269,2.344-1.925.166-.13.319-.259.471-.391.818-.7,1.636-1.426,2.441-2.159.166-.158.333-.319.513-.478.8-.759,1.623-1.53,2.413-2.321,0-.006.014-.011.014-.018L346.886,1.959l41.88-41.874q.853-.865,1.706-1.75c.139-.158.291-.319.444-.477.4-.44.818-.879,1.22-1.326.153-.169.305-.341.458-.512.388-.445.777-.892,1.165-1.344.139-.158.263-.318.4-.476.4-.476.8-.954,1.193-1.435.111-.136.222-.273.319-.409.416-.516.832-1.036,1.234-1.56.069-.105.153-.212.236-.319.43-.564.846-1.132,1.262-1.7.055-.075.111-.147.166-.22.444-.614.874-1.233,1.3-1.855a.515.515,0,0,1,.069-.116c.458-.666.9-1.337,1.345-2.014h0a93.221,93.221,0,0,0,14.769-50.659,92.919,92.919,0,0,0-27.291-66.177Q385.916-175.124,382.831-177.7Z" transform="translate(6.981 6.983)" fill="#fff"/>
      <path id="Path_2" data-name="Path 2" d="M423.829-146.234a104.506,104.506,0,0,1,9.263,27.649c.194.978.361,1.96.513,2.943l-.1.021a106.825,106.825,0,0,1,1.276,16.512,104.864,104.864,0,0,1-16.794,57.263c-.5.76-1,1.513-1.512,2.262l-.042.054c-.485.721-1,1.435-1.512,2.144-.028.047-.069.1-.1.143-.485.671-.985,1.335-1.484,2-.069.083-.125.165-.194.248-.471.618-.957,1.23-1.442,1.84l-.291.351c-.458.569-.929,1.132-1.4,1.692l-.374.442c-.444.527-.9,1.047-1.373,1.566-.153.171-.291.343-.444.512-.458.51-.929,1.014-1.4,1.516-.153.166-.305.334-.471.5-.624.659-1.262,1.31-1.9,1.955L298.48,80.944c-.028.024-.042.047-.069.071-.569.571-1.151,1.133-1.733,1.688-.194.194-.4.383-.61.574-.416.387-.832.772-1.248,1.151-.222.211-.458.42-.693.628q-.6.537-1.206,1.064c-.236.2-.471.4-.707.6q-.645.547-1.29,1.082l-.624.514q-.811.653-1.622,1.29c-.111.082-.208.166-.319.247-1.317,1.018-2.649,2-4.008,2.945-.888.62-1.775,1.223-2.676,1.812-.291.19-.582.374-.874.56-.693.447-1.4.885-2.108,1.315-.291.179-.582.359-.874.535q-1.394.817-2.787,1.593c-.277.151-.541.3-.818.445q-1.165.624-2.33,1.22c-.291.147-.569.3-.86.44-.513.254-1.026.5-1.539.745-.291.14-.582.283-.874.419a103.893,103.893,0,0,1-18.832,6.654c-1.664.415-3.343.788-5.02,1.122A107.3,107.3,0,0,1,224,111.677a107.714,107.714,0,0,1-15.656-1.139c-1.706-.251-3.411-.544-5.1-.876-.846-.166-1.678-.344-2.524-.531a104.635,104.635,0,0,1-10.636-2.975c-.25-.085-.5-.166-.749-.252-.638-.218-1.262-.444-1.886-.673-.485-.183-.985-.37-1.484-.56-.471-.182-.943-.363-1.415-.552q-3.116-1.254-6.165-2.711c-.133-.062-.263-.129-.4-.193-.8-.387-1.592-.79-2.382-1.2-.441-.229-.883-.46-1.322-.695q-1.021-.547-2.034-1.118c-.408-.229-.814-.463-1.219-.7-.821-.477-1.639-.958-2.449-1.46-.065-.04-.13-.079-.194-.119a104.722,104.722,0,0,1-9.667-6.8c-.053-.043-.105-.086-.159-.128q-1.015-.805-2.015-1.642l-.41-.343-.037-.032q-.863-.728-1.713-1.48l-.244-.216-.37-.326q-.795-.711-1.577-1.444c-.019-.019-.04-.037-.061-.057-.18-.168-.361-.333-.539-.5-.68-.643-1.352-1.294-2.016-1.958-.019-.019-.04-.037-.058-.057-.892-.892-1.76-1.8-2.615-2.724-.037-.04-.076-.08-.112-.121-.176-.189-.348-.379-.523-.567-.8-.876-1.589-1.761-2.357-2.663-.137-.159-.27-.323-.4-.483q-1.073-1.275-2.105-2.581c-.129-.162-.259-.323-.387-.487l-.042-.053q-1.119-1.435-2.186-2.911c-.153-.211-.3-.423-.454-.634-.727-1.019-1.442-2.048-2.131-3.094-.025-.036-.049-.075-.074-.112q-.774-1.177-1.516-2.373c-.015-.025-.029-.049-.044-.071q-2.323-3.761-4.334-7.726l-.015,0q-.5-.982-.976-1.971L127.955,49.8l-1.867-3.753.331-.039,3.833-.435,4.164-.473q6.2-.7,12.263-1.941,3.031-.62,6.021-1.371a137.579,137.579,0,0,0,14.7-4.578,137.726,137.726,0,0,0,14.125-6.2l4.4-2.235L188.8,32.6l.055.085.028.043c.014,0,.014,0,.014,0l.014.021c.25.341.513.677.777,1.01a2.341,2.341,0,0,0,.18.222V34c.014.017.042.033.055.051.416.523.846,1.03,1.29,1.53.125.133.236.266.361.4.458.508.929,1.007,1.4,1.482,0,0,0,.006.014.008a43.834,43.834,0,0,0,5.186,4.445c.208.15.43.288.624.434.361.247.707.5,1.054.732.1.065.208.125.305.187.139.093.277.182.416.27.541.334,1.068.657,1.609.967.111.06.208.123.319.183.61.349,1.248.68,1.886,1,.139.073.291.144.444.216.222.112.458.229.693.337.18.085.361.154.555.236.444.2.9.394,1.359.58.333.136.666.269,1,.4.471.176.929.34,1.4.5.333.112.666.227,1.012.333.485.153.985.29,1.47.427.319.087.638.179.957.261.1.022.18.051.277.073.68.166,1.373.316,2.052.449h.014c.083.015.166.026.25.042a43.905,43.905,0,0,0,6.655.725c.487.015.986.035,1.471.035q2.1,0,4.2-.2c.707-.068,1.4-.151,2.094-.251s1.4-.218,2.08-.351a43.671,43.671,0,0,0,6.086-1.638c.014-.006.043-.01.057-.015q1-.352,2-.752c.083-.033.153-.075.236-.108.416-.169.817-.356,1.22-.539s.817-.361,1.22-.556.8-.41,1.206-.618c.388-.208.79-.412,1.177-.634.4-.222.778-.46,1.166-.7s.777-.465,1.165-.713c.069-.05.153-.093.236-.144q.915-.6,1.789-1.252c.541-.391,1.068-.8,1.581-1.216.153-.123.305-.25.458-.374q.562-.476,1.123-.972c.153-.132.305-.262.444-.4.5-.455,1-.917,1.47-1.4L284.1,8.386,360.579-68.1c.582-.585,1.151-1.187,1.692-1.8.153-.176.305-.358.458-.535.4-.455.79-.915,1.151-1.384q.229-.287.458-.58c.374-.5.749-1,1.109-1.506.111-.157.222-.313.333-.473.458-.667.888-1.344,1.317-2.032v-.007a43.794,43.794,0,0,0,6.268-22.7,43.512,43.512,0,0,0-12.786-31.011c-.444-.449-.915-.89-1.4-1.326s-.971-.871-1.484-1.294c-.083-.071-.166-.144-.263-.215-.513-.428-1.04-.851-1.595-1.259h0a43.193,43.193,0,0,0-9.971-5.575c-.721-.281-1.428-.545-2.149-.789a44.532,44.532,0,0,0-4.424-1.24c-.166-.035-.319-.069-.471-.1-.083-.017-.153-.036-.236-.053s-.194-.039-.291-.057l-.305-.058a44.722,44.722,0,0,0-6.2-.729c-.693-.033-1.4-.05-2.094-.05a43.567,43.567,0,0,0-31.022,12.786L263.839-95.242l-.139-.031L192.99-24.554A104.625,104.625,0,0,1,174.434-9.8q-2.005,1.25-4.06,2.41-4.114,2.317-8.422,4.257Q158.723-1.68,155.4-.444q-1.107.41-2.224.8A105.747,105.747,0,0,1,125.232,5.96l-.058,0-.058,0q-3.305.206-6.623.207a106.539,106.539,0,0,1-19.5-1.8A105.2,105.2,0,0,1,78-1.857q-3.38-1.4-6.663-3.036-1.9-.946-3.757-1.966Q63.874-8.9,60.35-11.223q-1.762-1.163-3.472-2.394A104.428,104.428,0,0,1,44.015-24.554a105.985,105.985,0,0,1-8.874-10.072q-.813-1.05-1.593-2.116a103.935,103.935,0,0,1-5.776-8.753,104.636,104.636,0,0,1-8.666-18.678Q17.423-69,16.219-73.946q-.3-1.236-.571-2.477a105.887,105.887,0,0,1-2.165-15.035q-.092-1.263-.151-2.525-.241-5.053,0-10.112.06-1.263.151-2.525a105.887,105.887,0,0,1,2.165-15.035q.27-1.24.571-2.475,1.2-4.94,2.887-9.774a104.623,104.623,0,0,1,8.666-18.677,103.727,103.727,0,0,1,5.776-8.755q.782-1.065,1.593-2.115a105.828,105.828,0,0,1,8.874-10.073L149.583-279.092a105.015,105.015,0,0,1,74.482-30.8,105.337,105.337,0,0,1,55.541,15.767,105.592,105.592,0,0,1,9.749,6.853c.055.042.1.085.153.126.68.538,1.345,1.084,2.025,1.642.139.123.291.245.43.369.582.488,1.151.983,1.72,1.487.194.168.388.334.582.5.541.487,1.082.982,1.609,1.481.194.178.388.351.582.53.707.67,1.4,1.351,2.094,2.044,0,0,0,0,.014,0,.652.655,1.29,1.316,1.928,1.986.263.283.527.571.79.856.361.384.707.767,1.068,1.157.333.372.666.75.985,1.126.263.3.527.6.79.9q.562.666,1.123,1.34c.194.233.388.466.582.7.416.514.818,1.032,1.234,1.553q.187.243.374.491c.458.589.9,1.186,1.345,1.783.069.085.125.169.194.255a103.05,103.05,0,0,1,9.846,16.408l1.29,2.582,1.858,3.753-.319.037-3.841.435-4.16.473q-6.2.7-12.259,1.943-3.037.62-6.032,1.37a138.452,138.452,0,0,0-14.7,4.578,138.974,138.974,0,0,0-14.117,6.2l-4.41,2.237-2.954-3.958a44.04,44.04,0,0,0-4.1-4.74c-1.068-1.068-2.177-2.07-3.314-3.006a43.715,43.715,0,0,0-17.237-8.566c-.693-.168-1.387-.318-2.066-.452a44.325,44.325,0,0,0-8.391-.8,44.063,44.063,0,0,0-8.375.8,43.426,43.426,0,0,0-8.126,2.4,43.444,43.444,0,0,0-9.43,5.26,43.214,43.214,0,0,0-5.076,4.359L87.488-130.049a43.712,43.712,0,0,0-6.619,8.477A43.359,43.359,0,0,0,78-115.86a44.067,44.067,0,0,0-3.3,16.823A44.066,44.066,0,0,0,78-82.216a43.429,43.429,0,0,0,2.866,5.711,43.762,43.762,0,0,0,6.619,8.479q.541.541,1.108,1.068t1.158,1.037q1.182,1.023,2.452,1.975,1.173.878,2.4,1.671a43.546,43.546,0,0,0,3.784,2.19,43.843,43.843,0,0,0,9.545,3.567q.711.173,1.428.326a43.988,43.988,0,0,0,4.354.692c.405.043.807.065,1.212.1,1.212.1,2.421.164,3.625.164a44.105,44.105,0,0,0,12.723-1.867,43.524,43.524,0,0,0,18.235-10.918L255.075-173.6A105.57,105.57,0,0,1,270.2-186.114c.9-.61,1.817-1.208,2.732-1.79q2.746-1.745,5.6-3.318t5.8-2.962a105.1,105.1,0,0,1,15.2-5.8l.208-.062c.569-.169,1.151-.331,1.733-.49.263-.075.541-.151.8-.223.1-.025.194-.047.277-.072q5.013-1.323,10.082-2.149a106.329,106.329,0,0,1,16.627-1.367c.139,0,.291-.01.43-.01.79,0,1.595.011,2.4.029.263.006.527.017.79.025.527.017,1.068.033,1.595.057.319.015.638.033.957.051.485.025.957.053,1.442.085.347.024.68.05,1.026.076.458.036.9.073,1.359.114.361.033.707.067,1.068.1.444.044.874.092,1.317.141l.818.1c.083.011.18.021.263.032.444.053.86.111,1.3.169.361.051.735.1,1.1.154.43.062.846.13,1.276.2.361.06.735.115,1.109.179.43.072.86.154,1.29.233q1.123.206,2.247.438c.347.069.693.137,1.026.211.458.1.915.2,1.373.309.319.072.638.144.943.219.471.111.929.229,1.4.347l.9.233q.707.187,1.414.385c.291.08.569.159.86.241q.728.21,1.456.431c.263.079.513.158.777.239.513.159,1.026.322,1.525.488.208.069.416.14.638.211.541.186,1.1.373,1.65.569l.333.118a104.186,104.186,0,0,1,10.109,4.234l.208.094c.61.3,1.234.61,1.858.925.069.04.153.08.236.122.624.318,1.234.641,1.858.971.055.033.111.067.18.1q.957.52,1.914,1.058v0a104.513,104.513,0,0,1,13.521,9.14s0,0,.014,0q.915.734,1.831,1.492,3.661,3.052,7.1,6.476A104.6,104.6,0,0,1,423.829-146.234Zm-22.1-47.005c-.042-.037-.1-.073-.139-.111q-3.474-2.652-7.128-5.034c-.125-.082-.25-.161-.374-.241-1.165-.757-2.344-1.5-3.55-2.215a.649.649,0,0,1-.055-.037q-1.789-1.065-3.619-2.065c-.222-.119-.43-.236-.652-.352-1.165-.631-2.344-1.248-3.522-1.84-.042-.022-.1-.046-.139-.069-1.206-.6-2.427-1.17-3.661-1.729-.277-.129-.569-.257-.846-.384-1.234-.549-2.482-1.084-3.73-1.592a119.383,119.383,0,0,0-13.535-4.558,118.114,118.114,0,0,0-18.929-3.482c-.236-.024-.458-.058-.68-.079-1.9-.182-3.8-.318-5.713-.409q-1.435-.069-2.871-.1c-.957-.024-1.928-.035-2.884-.035-.4,0-.8.014-1.206.018a119.441,119.441,0,0,0-24.8,2.857c-.25.055-.485.1-.735.157-.693.161-1.387.341-2.08.513-.555.139-1.109.265-1.65.41a.183.183,0,0,0-.042.01c-.111.028-.208.051-.291.076-.139.033-.25.065-.361.1s-.236.062-.333.094l-.25.068c-.624.172-1.276.355-1.928.545l-.236.068c-.777.233-1.567.487-2.344.735q-1.789.566-3.536,1.187c-.374.13-.749.252-1.123.387l-.263.1c-1.623.6-3.231,1.238-4.826,1.905-1.5.623-2.968,1.272-4.438,1.955-.263.128-.541.251-.818.38a117.838,117.838,0,0,0-10.72,5.816c-1.012.616-2.025,1.248-3.009,1.894-1.4.91-2.773,1.847-4.133,2.817-1.29.921-2.579,1.858-3.827,2.83q-1.456,1.125-2.871,2.3-4.243,3.511-8.142,7.415l-52.792,52.785L140.166-77.372a30.646,30.646,0,0,1-3.427,2.957,30.143,30.143,0,0,1-7.851,4.188,30.233,30.233,0,0,1-4.311,1.184q-.734.146-1.48.255a31.22,31.22,0,0,1-4.543.33c-.567,0-1.139-.015-1.71-.046s-1.143-.078-1.71-.139a30.8,30.8,0,0,1-7.918-1.941,30.334,30.334,0,0,1-5.419-2.78q-.853-.553-1.671-1.165-.445-.333-.875-.678-.857-.691-1.647-1.424c-.262-.244-.517-.49-.767-.739A30.459,30.459,0,0,1,93.877-80.8a30.2,30.2,0,0,1-3.056-5.114,30.744,30.744,0,0,1-2.9-13.121,30.946,30.946,0,0,1,1.768-10.372c.166-.467.344-.932.533-1.39q.566-1.377,1.266-2.693a30.249,30.249,0,0,1,2.388-3.783,30.688,30.688,0,0,1,2.958-3.429l52.786-52.784,52.787-52.785a31.172,31.172,0,0,1,4.659-3.834,30.33,30.33,0,0,1,8.071-3.808,30.25,30.25,0,0,1,4.382-.98,31.31,31.31,0,0,1,4.547-.331,30.521,30.521,0,0,1,14.437,3.585c.874.467,1.733.98,2.564,1.535a29.051,29.051,0,0,1,2.413,1.793c.778.639,1.527,1.32,2.26,2.043q.751.751,1.457,1.582c.485.552.943,1.129,1.387,1.725l2.968,3.955L258.2-210.1l1.636-.829a131.945,131.945,0,0,1,66.19-19.783c2.357-.062,4.7-.064,7.059,0,2.191.057,4.4.171,6.587.337a117.617,117.617,0,0,0-28.345-54.477c-.208-.227-.416-.456-.638-.684-.263-.28-.513-.563-.79-.842q-.978-1.034-2-2.054c-.624-.634-1.276-1.258-1.914-1.878-.263-.243-.513-.481-.777-.722q-.562-.528-1.123-1.048c-.361-.32-.707-.639-1.054-.955-.25-.214-.485-.424-.721-.635a117.438,117.438,0,0,0-24.227-16.427l-9.388-4.341q-2.683-1.08-5.367-2.023c-.9-.316-1.8-.619-2.718-.913a118.07,118.07,0,0,0-16.587-4.063c-.928-.158-1.871-.306-2.814-.442a119.726,119.726,0,0,0-17.142-1.226q-4.325,0-8.61.308A118.057,118.057,0,0,0,192.99-319a119.348,119.348,0,0,0-13.537,4.558q-1.381.56-2.742,1.151a117.614,117.614,0,0,0-10.6,5.246q-2.575,1.442-5.071,3.008a118.315,118.315,0,0,0-20.8,16.6L34.669-182.869a118.689,118.689,0,0,0,0,167.662q1.691,1.689,3.442,3.3A117.277,117.277,0,0,0,53.068-.194a117.615,117.615,0,0,0,12.38,7.131A118.412,118.412,0,0,0,96.569,17.365c3.6.673,7.25,1.179,10.912,1.517q2.746.254,5.5.381,1.377.064,2.754.1t2.753.032c2.461,0,4.952-.078,7.4-.23h.036l.036,0h.05l.05,0q4.058-.256,8.063-.785,1.333-.175,2.663-.381,3.986-.616,7.9-1.5a118.185,118.185,0,0,0,12.821-3.649q2.515-.869,4.987-1.853A118.259,118.259,0,0,0,183.685-.03c1.484-.975,2.94-1.983,4.382-3.025a117.653,117.653,0,0,0,14.27-12.152L267.861-80.73l40.16-40.011a30.247,30.247,0,0,1,11.3-7.145q.686-.25,1.414-.465,1.435-.431,2.912-.72a31.15,31.15,0,0,1,6.046-.585c.485,0,.971.012,1.456.035.263.012.513.036.777.054.236.018.458.028.693.049.263.025.513.061.777.092.236.028.458.05.679.082.166.024.333.055.5.082.319.05.638.1.957.157l.208.04.153.029.042.007.014,0,.125.029.305.069c.541.119,1.054.251,1.581.4a30.071,30.071,0,0,1,9.957,4.9h0c.555.412,1.1.839,1.609,1.277,0,.006,0,.011.014.017.513.442,1.012.894,1.484,1.356l.208.2a30.391,30.391,0,0,1,8.917,21.667,30.57,30.57,0,0,1-4.022,15.251,29.674,29.674,0,0,1-2.177,3.285c-.042.065-.1.129-.139.193-.333.422-.666.835-1.012,1.241-.1.111-.194.223-.291.333-.416.465-.832.921-1.276,1.363L309.353-35.57l-10.9,10.91-17.6,17.6-35.2,35.19c-.4.413-.832.81-1.262,1.2-.139.118-.277.23-.4.345-.319.266-.623.53-.942.784-.153.122-.305.244-.471.363-.32.247-.653.487-.986.72-.137.1-.276.2-.415.3-.208.136-.416.262-.61.391-.416.269-.846.534-1.262.779-.154.083-.291.165-.444.247-.361.2-.736.384-1.1.57-.333.169-.664.337-1.011.492s-.68.294-1.012.437-.693.284-1.054.413-.693.245-1.04.361-.722.236-1.083.338-.72.194-1.08.286-.721.18-1.1.258c-.6.128-1.206.247-1.83.34a.188.188,0,0,0-.028,0c-.653.1-1.319.165-1.983.219l-.513.037c-.679.043-1.359.074-2.039.074-.582,0-1.165-.021-1.747-.051-.18-.012-.361-.028-.541-.042-.361-.025-.721-.06-1.083-.1-.47-.051-.942-.116-1.414-.191-.22-.033-.456-.062-.68-.1-.68-.121-1.344-.259-2.023-.426,0,0-.014,0-.014-.007-.666-.166-1.331-.359-1.983-.571-.208-.068-.416-.146-.624-.22-.458-.153-.9-.315-1.331-.491-.374-.151-.749-.305-1.123-.469-.083-.042-.18-.08-.263-.119-.5-.23-1-.476-1.484-.732-.153-.079-.291-.162-.444-.245-.263-.14-.513-.283-.763-.431-.166-.1-.319-.193-.485-.293-.25-.148-.485-.3-.721-.456-.166-.105-.319-.209-.471-.316-.25-.165-.485-.334-.721-.506-.153-.107-.291-.211-.444-.319-.25-.194-.513-.4-.763-.6-.111-.094-.236-.186-.361-.283-.749-.623-1.484-1.284-2.177-1.987-.5-.5-1-1.029-1.47-1.581s-.943-1.13-1.387-1.727l-2.954-3.955-6.656-8.9-1.636.829a131.916,131.916,0,0,1-66.193,19.782q-3.522.094-7.049,0-3.3-.085-6.591-.337a118.244,118.244,0,0,0,8.731,25.452l-.017,0,.907,1.821c.128.257.261.51.391.765.191.376.38.752.576,1.126q.672,1.294,1.376,2.567c.2.351.392.7.591,1.048q.63,1.113,1.283,2.212c.146.245.288.491.435.735q.824,1.362,1.688,2.7c.147.23.3.462.445.691q.94,1.442,1.922,2.857c.067.1.135.19.2.284a117.629,117.629,0,0,0,13.188,15.742c.018.017.035.035.05.051q.953.951,1.925,1.878l.412.388c.269.254.539.5.81.756.225.209.449.42.675.627.351.322.7.641,1.057.955.042.039.083.075.128.114A118.129,118.129,0,0,0,163.1,108.2q2.48,1.485,5.023,2.841t5.15,2.586q2.977,1.4,6.03,2.632l.075.035c.08.033.164.064.245.1q.859.345,1.724.673c.34.132.68.263,1.019.391.291.108.584.212.876.318.5.183.993.37,1.492.545.9.316,1.8.62,2.718.912.666.218,1.359.41,2.025.617l.374.112a117.562,117.562,0,0,0,14.186,3.335c.943.157,1.872.305,2.815.441A119.863,119.863,0,0,0,224,124.965q4.327,0,8.612-.306a118.168,118.168,0,0,0,22.465-3.8c2.76-.747,5.492-1.61,8.21-2.56.43-.153.874-.3,1.3-.46s.9-.329,1.345-.5c.735-.273,1.456-.557,2.177-.846.166-.065.333-.126.5-.194.1-.036.18-.074.263-.11.693-.283,1.387-.576,2.08-.871.139-.058.277-.111.4-.169.055-.021.1-.044.153-.067.763-.33,1.512-.673,2.274-1.019l.374-.176c.763-.354,1.525-.718,2.274-1.089.125-.065.263-.128.4-.193.707-.352,1.414-.716,2.108-1.083l.541-.276q.936-.5,1.872-1.016c.194-.111.4-.216.61-.329.042-.028.1-.058.139-.086.527-.3,1.054-.6,1.581-.906.333-.2.666-.39,1.012-.589.4-.243.8-.5,1.22-.745.374-.227.749-.449,1.109-.681.069-.04.125-.085.194-.125.6-.377,1.193-.765,1.789-1.154q.978-.649,1.955-1.32c.444-.3.874-.592,1.3-.9.458-.326.915-.66,1.373-.993.388-.276.763-.549,1.137-.829.458-.338.9-.684,1.359-1.029q.562-.435,1.123-.876.645-.512,1.29-1.033c.4-.318.79-.639,1.179-.961.4-.337.8-.674,1.207-1.015.416-.361.832-.728,1.248-1.094.361-.316.721-.632,1.082-.953.485-.434.957-.878,1.442-1.32.277-.269.569-.534.86-.807.749-.707,1.484-1.424,2.219-2.155l.042-.043L371.521,26.6,413.4-15.279q1.082-1.082,2.122-2.188c.166-.169.319-.343.485-.512.541-.577,1.082-1.155,1.609-1.742.153-.166.291-.334.444-.5.541-.6,1.068-1.205,1.595-1.817.111-.136.236-.275.347-.41.555-.653,1.1-1.309,1.636-1.972.083-.1.153-.193.236-.29.569-.711,1.137-1.427,1.692-2.148.042-.058.1-.116.139-.173.582-.764,1.165-1.537,1.733-2.314l.042-.074q.895-1.217,1.747-2.452v0A117.869,117.869,0,0,0,448-99.11,123.013,123.013,0,0,0,446.821-116a14.253,14.253,0,0,0-.166-1.7c-.194-1.215-.374-2.3-.569-3.309a118.8,118.8,0,0,0-10.415-31.119,118.086,118.086,0,0,0-22.146-30.779A119.438,119.438,0,0,0,401.724-193.24Z" transform="translate(0)" fill="#fff"/>
    </g>
  </g>
</svg>
